<svg xmlns="http://www.w3.org/2000/svg" width="320" height="176"><style>line, path, circle, rect, polygon{stroke:black;stroke-width:2;stroke-opacity:1;fill-opacity:1;stroke-linecap:round;stroke-linejoin:miter;}text{font-family:Iosevka Fixed, monospace;font-size:14px;}rect.backdrop{stroke:none;fill:white;}.broken{stroke-dasharray:8;}.filled{fill:black;}.bg_filled{fill:white;}.nofill{fill:white;}.end_marked_arrow{marker-end:url(#arrow);}.start_marked_arrow{marker-start:url(#arrow);}.end_marked_diamond{marker-end:url(#diamond);}.start_marked_diamond{marker-start:url(#diamond);}.end_marked_circle{marker-end:url(#circle);}.start_marked_circle{marker-start:url(#circle);}.end_marked_open_circle{marker-end:url(#open_circle);}.start_marked_open_circle{marker-start:url(#open_circle);}.end_marked_big_open_circle{marker-end:url(#big_open_circle);}.start_marked_big_open_circle{marker-start:url(#big_open_circle);}<!--separator--></style><defs><marker id="arrow" viewBox="-2 -2 8 8" refX="4" refY="2" markerWidth="7" markerHeight="7" orient="auto-start-reverse"><polygon points="0,0 0,4 4,2 0,0"></polygon></marker><marker id="diamond" viewBox="-2 -2 8 8" refX="4" refY="2" markerWidth="7" markerHeight="7" orient="auto-start-reverse"><polygon points="0,2 2,0 4,2 2,4 0,2"></polygon></marker><marker id="circle" viewBox="0 0 8 8" refX="4" refY="4" markerWidth="7" markerHeight="7" orient="auto-start-reverse"><circle cx="4" cy="4" r="2" class="filled"></circle></marker><marker id="open_circle" viewBox="0 0 8 8" refX="4" refY="4" markerWidth="7" markerHeight="7" orient="auto-start-reverse"><circle cx="4" cy="4" r="2" class="bg_filled"></circle></marker><marker id="big_open_circle" viewBox="0 0 8 8" refX="4" refY="4" markerWidth="7" markerHeight="7" orient="auto-start-reverse"><circle cx="4" cy="4" r="3" class="bg_filled"></circle></marker></defs><rect class="backdrop" x="0" y="0" width="320" height="176"></rect><text x="2" y="12" >N</text><text x="18" y="12" >x</text><text x="34" y="12" >N</text><text x="18" y="44" >✓</text><text x="50" y="44" >✓</text><text x="82" y="44" >✓</text><text x="114" y="44" >✓</text><text x="18" y="76" >✓</text><text x="18" y="108" >✓</text><text x="18" y="140" >✓</text><path d="M 184,128 A 16,16 0,0,0 184,144" class="nofill"></path><text x="186" y="140" >N</text><line x1="200" y1="136" x2="208" y2="136" class="solid"></line><text x="218" y="140" >1</text><path d="M 224,128 A 16,16 0,0,1 224,144" class="nofill"></path><text x="242" y="140" >x</text><path d="M 264,128 A 16,16 0,0,0 264,144" class="nofill"></path><text x="266" y="140" >N</text><line x1="280" y1="136" x2="288" y2="136" class="solid"></line><text x="298" y="140" >1</text><path d="M 304,128 A 16,16 0,0,1 304,144" class="nofill"></path><g><path d="M 8,24 A 4,4 0,0,0 4,28" class="nofill"></path><line x1="4" y1="28" x2="4" y2="148" class="solid"></line><line x1="8" y1="24" x2="128" y2="24" class="solid"></line><line x1="36" y1="24" x2="36" y2="152" class="solid"></line><line x1="68" y1="24" x2="68" y2="152" class="solid"></line><line x1="100" y1="24" x2="100" y2="152" class="solid"></line><path d="M 128,24 A 4,4 0,0,1 132,28" class="nofill"></path><line x1="132" y1="28" x2="132" y2="148" class="solid"></line><line x1="4" y1="56" x2="132" y2="56" class="solid"></line><line x1="4" y1="88" x2="132" y2="88" class="solid"></line><line x1="4" y1="120" x2="132" y2="120" class="solid"></line><path d="M 4,148 A 4,4 0,0,0 8,152" class="nofill"></path><line x1="8" y1="152" x2="128" y2="152" class="solid"></line><path d="M 132,148 A 4,4 0,0,1 128,152" class="nofill"></path></g><g><line x1="144" y1="136" x2="160" y2="136" class="solid"></line><polygon points="160,132 168,136 160,140" class="filled"></polygon></g></svg>